# xmcd
#
# Track frame offsets:
# 150
# 15753
# 34010
# 49926
# 64981
# 83890
# 104436
# 120644
# 146954
# 164964
# 183627
# 203465
# 225172
# 244917
# 267050
#
# Disc length: 3765 seconds
#
#
# Revision: 0
# Processed by: cddbd v1.5.2PL0 Copyright (c) Steve Scherf et al.
# Submitted via: FreeRIP 2.96 
#
DISCID=cd0eb30f
DTITLE=Barry White - the Ultimate collection
DYEAR=2001
DGENRE=
TTITLE0=You're the first,the last,my everything
TTITLE1=Can't get enough of your love babe
TTITLE2=Let the music play
TTITLE3=Don't make me wait too long
TTITLE4=I'll do for you anything you want me to
TTITLE5=So'you right
TTITLE6=What am I gonna do with you
TTITLE7=Come on
TTITLE8=I'm gonna love you just a little more babe
TTITLE9=Never,never gonna give you up
TTITLE10=Baby we better try and get it together
TTITLE11=Just the way you are
TTITLE12=I'm qualified to satisfy you
TTITLE13=Dark and lovely (You over there) ''Radio Edit''
TTITLE14=You see the trouble with me
EXTD=
EXTT0=
EXTT1=
EXTT2=
EXTT3=
EXTT4=
EXTT5=
EXTT6=
EXTT7=
EXTT8=
EXTT9=
EXTT10=
EXTT11=
EXTT12=
EXTT13=
EXTT14=
PLAYORDER=
